<svg xmlns="http://www.w3.org/2000/svg" width="16" height="16" viewBox="0 0 16 16">
  <g fill="#2e3436">
    <path d="M8 0.5a7.5 7.5 0 1 0 0 15 7.5 7.5 0 0 0 0-15zm0 1.2a6.3 6.3 0 1 1 0 12.6 6.3 6.3 0 0 1 0-12.6z"/>
    <circle cx="8" cy="8" r="1.9"/>
    <path d="M8.9 6.9C8.4 4.9 9.2 2.6 11.6 1.9c0.9 1.9 0.4 4.2-1.6 5.5z" transform="rotate(0 8 8)"/>
    <path d="M8.9 6.9C8.4 4.9 9.2 2.6 11.6 1.9c0.9 1.9 0.4 4.2-1.6 5.5z" transform="rotate(72 8 8)"/>
    <path d="M8.9 6.9C8.4 4.9 9.2 2.6 11.6 1.9c0.9 1.9 0.4 4.2-1.6 5.5z" transform="rotate(144 8 8)"/>
    <path d="M8.9 6.9C8.4 4.9 9.2 2.6 11.6 1.9c0.9 1.9 0.4 4.2-1.6 5.5z" transform="rotate(216 8 8)"/>
    <path d="M8.9 6.9C8.4 4.9 9.2 2.6 11.6 1.9c0.9 1.9 0.4 4.2-1.6 5.5z" transform="rotate(288 8 8)"/>
  </g>
</svg>
